{"title":"Point.Break.2015.HDCAM.XVID.AC3.HQ.Hive-CM8","uid":13486769,"size":1480432176,"categoryP":"video","categoryS":"movies","magnet":"?xt=urn:btih:b67985cd5e91a1bc5105f0f2f4e2c6c9cbef68b6&amp;dn=Point.Break.2015.HDCAM.XVID.AC3.HQ.Hive-CM8&amp;tr=udp%3A%2F%2Ftracker.leechers-paradise.org%3A6969&amp;tr=udp%3A%2F%2Fzer0day.ch%3A1337&amp;tr=udp%3A%2F%2Fopen.demonii.com%3A1337&amp;tr=udp%3A%2F%2Ftracker.coppersurfer.tk%3A6969&amp;tr=udp%3A%2F%2Fexodus.desync.com%3A6969","seeders":7,"leechers":8,"uploader":"xxxlavalxxx","files":5,"time":1455087207,"description":"http://extraimago.com/image/PLc\r\n \nhttp://www.imdb.com/title/tt2058673/\r\n\r\n\r\nA young FBI agent infiltrates an extraordinary team of extreme sports athletes he suspects of masterminding a string of unprecedented, sophisticated corporate heists. &quot;Point Break&quot; is inspired by the classic 1991 hit.\r\n\r\nDirector: Ericson Core\r\nWriters: Kurt Wimmer (screenplay), Rick King (story)\r\nStars: Teresa Palmer, Luke Bracey, Édgar Ramírez \r\nGenres: Action | Crime | Sport | Thriller\r\nCountry: Germany | China | USA\r\nLanguage: English\r\n\r\n\r\nPoint.Break.2015.HDCAM.XVID.AC3.HQ.Hive-CM8\r\n\r\nThx Hive\r\n\r\nCM8 Doing It Right The First Time\r\n\r\nSources:\r\n\r\nVideo: 720p Italian Race-Crew\r\nAudio: Mic Audio from UnKnOwN\r\nthx guys\r\n\r\nEncode:\r\n\r\nVideo was nice, was already bright enough, fixed perspective and added slightly sharpness\r\nfor security reasons had to remove 30 secs the rest is all here\r\nAudio is a nice mic, you can hear whats been said, no line on this sorry, perhaps on the next one\r\nlipsynced to my video\r\n\r\nwill do me just fine\r\nenjoy\r\n\r\nVideo: 720x320 @bitrate 1700 2pass\r\nAudio: English Mic Stereo\r\nSamples: yes included \nhttp://www.imdb.com/title/tt2058673/\r\n\r\nGeneral\r\nComplete name: Point.Break.2015.HDCAM.XVID.AC3.HQ.Hive-CM8.avi\r\nFormat: AVI\r\nFormat/Info: Audio Video Interleave\r\nFile size: 1.35 GiB\r\nDuration: 1h 38mn\r\nOverall bit rate: 1 963 Kbps\r\nWriting application: Nandub v1.0rc2\r\nWriting library: Nandub build 1853/release\r\n\r\nVideo\r\nID: 0\r\nFormat: MPEG-4 Visual\r\nFormat profile: Advanced   \r\nFormat settings, BVOP: 2\r\nFormat settings, QPel: Yes\r\nFormat settings, GMC: No warppoints\r\nFormat settings, Matrix: Default (H.263)\r\nMuxing mode: Packed bitstream\r\nCodec ID: XVID\r\nCodec ID/Hint: XviD\r\nDuration: 1h 38mn\r\nBit rate: 1 697 Kbps\r\nWidth: 720 pixels\r\nHeight: 320 pixels\r\nDisplay aspect ratio: 2.25:1\r\nFrame rate: 25.049 fps\r\nOriginal frame rate: 25.052 fps\r\nColor space: YUV\r\nChroma subsampling: 4:2:0\r\nBit depth: 8 bits\r\nScan type: Progressive\r\nCompression mode: Lossy\r\nBits/(Pixel*Frame): 0.294\r\nStream size: 1.17 GiB (86%)\r\nWriting library: XviD 1.2.1 (UTC 2008-12-04)\r\n\r\nAudio\r\nID: 1\r\nFormat: AC-3\r\nFormat/Info: Audio Coding 3\r\nMode extension: CM (complete main)\r\nFormat settings, Endianness: Big\r\nCodec ID: 2000\r\nDuration: 1h 38mn\r\nBit rate mode: Constant\r\nBit rate: 256 Kbps\r\nChannel(s): 2 channels\r\nChannel positions: Front: L R\r\nSampling rate: 48.0 KHz\r\nBit depth: 16 bits\r\nCompression mode: Lossy\r\nStream size: 180 MiB (13%)\r\nAlignment: Split accross interleaves\r\nInterleave, duration: 40 ms (1.00 video frame)\r\nInterleave, preload duration: 500 ms\r\n\r\n \nhttp://extraimago.com/image/AGk \nhttp://extraimago.com/image/AGo \nhttp://extraimago.com/image/AGt \nhttp://extraimago.com/image/AGx \nhttp://extraimago.com/image/AG6","torrent":{"xt":"urn:btih:b67985cd5e91a1bc5105f0f2f4e2c6c9cbef68b6","amp;dn":"Point.Break.2015.HDCAM.XVID.AC3.HQ.Hive-CM8","amp;tr":["udp%3A%2F%2Ftracker.leechers-paradise.org%3A6969","udp%3A%2F%2Fzer0day.ch%3A1337","udp%3A%2F%2Fopen.demonii.com%3A1337","udp%3A%2F%2Ftracker.coppersurfer.tk%3A6969","udp%3A%2F%2Fexodus.desync.com%3A6969"],"infoHash":"b67985cd5e91a1bc5105f0f2f4e2c6c9cbef68b6","infoHashBuffer":{"type":"Buffer","data":[182,121,133,205,94,145,161,188,81,5,240,242,244,226,198,201,203,239,104,182]},"announce":[],"urlList":[]}}